<svg width="24" height="25" viewBox="0 0 24 25" fill="none" xmlns="http://www.w3.org/2000/svg">
<g id="Frame">
<path id="Vector" d="M5.07038 4.24902C5.02858 4.3947 5 4.55183 5 4.73131V19.4945C5 19.6712 5.02858 19.8267 5.06875 19.9708L13.4221 12.1209C13.4221 12.1208 5.07038 4.24902 5.07038 4.24902Z" fill="#BBA897"/>
<path id="Vector_2" d="M16.3697 9.12258L6.90471 3.65145C6.52737 3.41299 6.15589 3.35255 5.84204 3.43572L13.9828 11.4737L16.3697 9.12258Z" fill="#BBA897"/>
<path id="Vector_3" d="M20.2146 11.2204L17.4821 9.77466L14.6833 12.2961L17.534 14.8736L20.1925 13.4849C21.4903 12.7815 21.017 11.6493 20.2146 11.2204Z" fill="#BBA897"/>
<path id="Vector_4" d="M5.84204 20.7796C6.15912 20.8722 6.5378 20.8168 6.92285 20.5719L16.3697 15.1502L13.9516 12.7485C13.9516 12.7486 5.84204 20.7796 5.84204 20.7796Z" fill="#BBA897"/>
</g>
</svg>
