<svg width="24" height="25" viewBox="0 0 24 25" fill="none" xmlns="http://www.w3.org/2000/svg">
<g id="Frame">
<path id="Vector" d="M16.6384 11.6709C16.6384 9.52206 18.4443 8.48229 18.5138 8.41297C17.4719 6.9573 15.9438 6.74934 15.3882 6.68003C14.0684 6.54139 12.7487 7.44252 12.1236 7.44252C11.429 7.44252 10.3871 6.68003 9.27578 6.68003C7.81715 6.68003 6.49744 7.51184 5.73339 8.82888C4.2053 11.463 5.31664 15.3448 6.77527 17.4936C7.53932 18.5334 8.37282 19.7118 9.48416 19.6425C10.5955 19.5731 11.0123 18.9493 12.332 18.9493C13.6517 18.9493 13.999 19.6425 15.1798 19.6425C16.3606 19.6425 17.1246 18.6027 17.8192 17.5629C18.6527 16.3845 19 15.2061 19 15.1368C18.9305 15.0675 16.6384 14.2357 16.6384 11.6709Z" fill="#BBA897"/>
<path id="Vector_2" d="M14.4842 5.2942C15.0399 4.5317 15.4566 3.56125 15.3872 2.52148C14.5537 2.5908 13.4423 3.07603 12.8867 3.83852C12.331 4.46238 11.8448 5.50215 11.9837 6.4726C12.8867 6.54191 13.8591 5.98737 14.4842 5.2942Z" fill="#BBA897"/>
</g>
</svg>
