<svg width="25" height="24" viewBox="0 0 25 24" fill="none" xmlns="http://www.w3.org/2000/svg">
<g id="Frame" opacity="0.5">
<path id="Vector" d="M19.0426 7.05893H15.5309V4.8707L15.0367 4.71187C13.0426 4.05893 10.9426 4.05893 8.94848 4.71187L8.47201 4.8707V7.05893H4.96025C3.77789 7.05893 2.82495 8.01187 2.82495 9.19423V17.6472C2.82495 18.8295 3.77789 19.7825 4.96025 19.7825H19.0603C20.2426 19.7825 21.1956 18.8295 21.1956 17.6472V9.19423C21.1779 8.01187 20.225 7.05893 19.0426 7.05893ZM9.88377 5.91187C11.2779 5.54129 12.725 5.54129 14.1191 5.91187V7.05893H9.88377V5.91187ZM19.7662 17.6295C19.7662 18.0178 19.4485 18.3531 19.0426 18.3531H16.9426V9.88246H15.5309V18.3531H8.47201V9.88246H7.06024V18.3531H4.96025C4.57201 18.3531 4.23672 18.0354 4.23672 17.6295V9.19423C4.23672 8.80599 4.55436 8.4707 4.96025 8.4707H19.0603C19.4485 8.4707 19.7838 8.78834 19.7838 9.19423V17.6295H19.7662Z" fill="white"/>
</g>
</svg>
