<svg width="41" height="41" viewBox="0 0 41 41" fill="none" xmlns="http://www.w3.org/2000/svg">
<circle cx="20.5" cy="20.5" r="20.5" fill="#F6F6F7"/>
<path d="M15.3914 27.1574H10.8261C9.81809 27.1574 9 26.3393 9 25.3313V13.4616C9 12.4536 9.81809 11.6355 10.8261 11.6355H28.1741C29.183 11.6355 30.0002 12.4536 30.0002 13.4616V21.6791" stroke="#84848E" stroke-linecap="round" stroke-linejoin="round"/>
<path d="M15.3908 25.331H12.6516V13.4613H27.2604V21.6788" stroke="#84848E" stroke-linecap="round" stroke-linejoin="round"/>
<path fill-rule="evenodd" clip-rule="evenodd" d="M28.6306 18.9403C28.3795 18.9403 28.1741 19.1448 28.1741 19.3968C28.1741 19.6488 28.3795 19.8534 28.6306 19.8534C28.8826 19.8534 29.0871 19.6488 29.0871 19.3968C29.0871 19.1448 28.8826 18.9403 28.6306 18.9403Z" fill="#84848E"/>
<path fill-rule="evenodd" clip-rule="evenodd" d="M24.5197 23.3306V18.4558C24.5197 17.9674 24.3206 17.5702 23.8349 17.5702H22.5128C22.027 17.5702 21.7805 17.9674 21.7805 18.4558V26.8751L20.2101 24.996C20.0439 24.7833 19.7526 24.66 19.4824 24.66L18.5702 24.6774C18.2598 24.6774 17.9621 24.8417 17.8042 25.1111C17.6453 25.3813 17.6353 25.7146 17.7841 25.9885L21.1952 32.1753C21.3505 32.4593 21.6436 32.6355 21.9659 32.6355H27.7966C28.1536 32.6355 28.4741 32.4191 28.6101 32.0886L29.998 25.9885C29.998 25.5996 29.829 25.217 29.4593 25.1029L24.5197 23.3306Z" stroke="#84848E" stroke-linejoin="round"/>
<path fill-rule="evenodd" clip-rule="evenodd" d="M11.2839 19.3968C11.2839 19.6488 11.0794 19.8534 10.8274 19.8534C10.5754 19.8534 10.3708 19.6488 10.3708 19.3968C10.3708 19.1448 10.5754 18.9403 10.8274 18.9403C11.0794 18.9403 11.2839 19.1448 11.2839 19.3968V19.3968Z" stroke="#84848E" stroke-linejoin="round"/>
</svg>
