<svg width="41" height="41" viewBox="0 0 41 41" fill="none" xmlns="http://www.w3.org/2000/svg">
<circle opacity="0.2" cx="20.5" cy="20.5" r="20.5" fill="#323242"/>
<path fill-rule="evenodd" clip-rule="evenodd" d="M16.9497 27.5581H25.2269V21.1203H16.9497V27.5581Z" stroke="white" stroke-width="0.853863" stroke-linecap="round" stroke-linejoin="round"/>
<path d="M21.0881 25.7187V23.8793" stroke="white" stroke-width="0.853863" stroke-linecap="round" stroke-linejoin="round"/>
<path d="M18.3289 21.1203V20.2006C18.3289 18.6767 19.5649 17.4416 21.0879 17.4416C22.6109 17.4416 23.847 18.6767 23.847 20.2006V21.1203" stroke="white" stroke-width="0.853863" stroke-linecap="round" stroke-linejoin="round"/>
<path fill-rule="evenodd" clip-rule="evenodd" d="M21.5481 23.4195C21.5481 23.6734 21.3421 23.8794 21.0883 23.8794C20.8344 23.8794 20.6284 23.6734 20.6284 23.4195C20.6284 23.1657 20.8344 22.9597 21.0883 22.9597C21.3421 22.9597 21.5481 23.1657 21.5481 23.4195V23.4195Z" stroke="white" stroke-width="0.853863" stroke-linejoin="round"/>
<path fill-rule="evenodd" clip-rule="evenodd" d="M12.3511 11.9236H29.8251V18.606C29.8251 24.6768 26.4618 30.2492 21.0881 33.0763C15.7144 30.2492 12.3511 24.6768 12.3511 18.606V11.9236V11.9236Z" stroke="white" stroke-width="0.853863" stroke-linejoin="round"/>
<path d="M12.3511 14.6825H29.8251" stroke="white" stroke-width="0.853863" stroke-linejoin="round"/>
</svg>
