<svg width="41" height="41" viewBox="0 0 41 41" fill="none" xmlns="http://www.w3.org/2000/svg">
<path opacity="0.1" d="M41 20.5C41 31.8218 31.8218 41 20.5 41C9.17816 41 0 31.8218 0 20.5C0 9.17816 9.17816 0 20.5 0C31.8218 0 41 9.17816 41 20.5Z" fill="white"/>
<g opacity="0.7">
<path fill-rule="evenodd" clip-rule="evenodd" d="M14.1295 21.6998H16.4515C17.6395 21.6998 18.5395 22.5998 18.5395 23.7698C18.5395 24.9308 17.6395 25.8398 16.4515 25.8398H15.1645V26.3956H17.2373C17.5134 26.3956 17.7373 26.6195 17.7373 26.8956C17.7373 27.1718 17.5134 27.3956 17.2373 27.3956H15.1645V27.9998H14.1295V27.3956H13.7373C13.4612 27.3956 13.2373 27.1718 13.2373 26.8956C13.2373 26.6195 13.4612 26.3956 13.7373 26.3956H14.1295V21.6998ZM15.1645 24.8678H16.4515C17.0635 24.8678 17.5045 24.3998 17.5045 23.7698C17.5045 23.1308 17.0635 22.6718 16.4515 22.6718H15.1645V24.8678Z" fill="white"/>
<path fill-rule="evenodd" clip-rule="evenodd" d="M31.4995 16.4998C31.4995 20.6418 28.1425 23.9998 23.9995 23.9998C19.8575 23.9998 16.4995 20.6418 16.4995 16.4998C16.4995 12.3578 19.8575 8.99976 23.9995 8.99976C28.1425 8.99976 31.4995 12.3578 31.4995 16.4998V16.4998Z" stroke="white" stroke-linecap="round" stroke-linejoin="round"/>
<path d="M23.9995 19.4998V20.4998" stroke="white" stroke-linecap="round" stroke-linejoin="round"/>
<path d="M23.9995 12.4998V13.4998" stroke="white" stroke-linecap="round" stroke-linejoin="round"/>
<path d="M22.4995 17.9998C22.4995 18.8278 23.1715 19.4998 23.9995 19.4998C24.8275 19.4998 25.4995 18.8278 25.4995 17.9998C25.4995 17.1708 24.8275 16.4998 23.9995 16.4998C23.1715 16.4998 22.4995 15.8278 22.4995 14.9998C22.4995 14.1708 23.1715 13.4998 23.9995 13.4998C24.8275 13.4998 25.4995 14.1708 25.4995 14.9998" stroke="white" stroke-linecap="round" stroke-linejoin="round"/>
<path d="M16.526 17.0262C12.067 16.7252 8.5 20.2462 8.5 24.5002C8.5 28.6412 11.858 32.0002 16 32.0002C20.18 32.0002 23.754 28.5332 23.474 23.9732" stroke="white" stroke-linecap="round" stroke-linejoin="round"/>
</g>
</svg>
