<svg width="41" height="41" viewBox="0 0 41 41" fill="none" xmlns="http://www.w3.org/2000/svg">
<circle opacity="0.2" cx="20.5" cy="20.5" r="20.5" fill="#323242"/>
<path d="M23.2051 24.1066C23.2051 26.0216 24.7585 27.575 26.6734 27.575C28.5893 27.575 30.1418 26.0216 30.1418 24.1066C30.1418 22.1917 28.5893 20.6383 26.6734 20.6383C24.7585 20.6383 23.2051 19.0849 23.2051 17.1699C23.2051 15.254 24.7585 13.7016 26.6734 13.7016C28.5893 13.7016 30.1418 15.254 30.1418 17.1699" stroke="white" stroke-linecap="round" stroke-linejoin="round"/>
<path d="M26.6733 11.6214V29.6547" stroke="white" stroke-linecap="round" stroke-linejoin="round"/>
<path fill-rule="evenodd" clip-rule="evenodd" d="M20.4561 31.6682C14.3802 31.6682 9.45605 26.744 9.45605 20.6682C9.45605 14.5924 14.3802 9.66821 20.4561 9.66821H20.9343V31.6682H20.4561V31.6682Z" stroke="white" stroke-linejoin="round"/>
<path d="M10.7937 25.9291H20.9338" stroke="white" stroke-linejoin="round"/>
<path d="M10.7937 15.4073H20.9347" stroke="white" stroke-linejoin="round"/>
<path d="M9.46631 20.1899H20.934" stroke="white" stroke-linejoin="round"/>
<path d="M20.0329 31.6598C18.0223 29.5019 15.6731 25.8681 15.6731 20.6684C15.6731 15.4669 18.0233 11.833 20.0339 9.67703" stroke="white" stroke-linejoin="round"/>
</svg>
