<svg width="41" height="41" viewBox="0 0 41 41" fill="none" xmlns="http://www.w3.org/2000/svg">
<circle opacity="0.1" cx="20.5" cy="20.5" r="20.5" fill="white"/>
<g opacity="0.7">
<path fill-rule="evenodd" clip-rule="evenodd" d="M32 20.5C32 26.852 26.852 32 20.5 32C14.148 32 9 26.852 9 20.5C9 14.148 14.148 9 20.5 9C26.852 9 32 14.148 32 20.5V20.5Z" stroke="white" stroke-linecap="round" stroke-linejoin="round" stroke-dasharray="7.51 2.81"/>
<path fill-rule="evenodd" clip-rule="evenodd" d="M28.4198 20.5C28.4198 20.5 24.8558 25 20.4578 25C16.0618 25 12.4968 20.5 12.4968 20.5C12.4968 20.5 16.0618 16 20.4578 16C24.8558 16 28.4198 20.5 28.4198 20.5V20.5Z" stroke="white" stroke-linecap="round" stroke-linejoin="round"/>
<path fill-rule="evenodd" clip-rule="evenodd" d="M22.958 20.5C22.958 21.88 21.839 23 20.458 23C19.077 23 17.958 21.88 17.958 20.5C17.958 19.119 19.077 18 20.458 18C21.839 18 22.958 19.119 22.958 20.5V20.5Z" stroke="white" stroke-linecap="round" stroke-linejoin="round"/>
</g>
</svg>
