<svg width="71" height="71" viewBox="0 0 71 71" fill="none" xmlns="http://www.w3.org/2000/svg">
<circle opacity="0.2" cx="35.5" cy="35.5" r="35" stroke="#13162E"/>
<path d="M34.7953 38.4157L30.6855 36.9429V33.5663" stroke="#323242" stroke-linecap="round" stroke-linejoin="round"/>
<path d="M24.0814 33.567V36.9436L17.5742 39.2751C16.0155 39.8332 15 41.3093 15 42.9605V45.4191H34.814" stroke="#323242" stroke-linecap="round" stroke-linejoin="round"/>
<path fill-rule="evenodd" clip-rule="evenodd" d="M33.9012 26.8204C33.9012 31.1415 30.9819 34.6469 27.384 34.6469C23.7828 34.6469 20.8652 31.1415 20.8652 26.8204C20.8652 22.5026 23.7828 19.0005 27.384 19.0005C30.9819 19.0005 33.9012 22.5026 33.9012 26.8204V26.8204Z" stroke="#323242" stroke-linecap="round" stroke-linejoin="round"/>
<path d="M33.8497 26.1173C33.6317 26.1471 33.4517 26.1273 33.2321 26.1718C31.0113 26.5978 29.5864 25.7954 28.3629 23.6538C27.6297 25.0589 25.3396 26.1718 23.4556 26.1718C22.5293 26.1718 21.7301 25.9819 20.9326 25.5626" stroke="#323242" stroke-linecap="round" stroke-linejoin="round"/>
<path d="M38.1162 19C41.7157 19 44.6334 22.5021 44.6334 26.8199C44.6334 31.1427 41.7157 34.6481 38.1162 34.6481" stroke="#323242" stroke-linecap="round" stroke-linejoin="round"/>
<path d="M44.5823 26.1173C44.3643 26.1471 44.1843 26.1273 43.9647 26.1718C41.7439 26.5978 40.319 25.7954 39.0955 23.6538" stroke="#323242" stroke-linecap="round" stroke-linejoin="round"/>
<path d="M41.4187 37.1628V33.5665" stroke="#323242" stroke-linecap="round" stroke-linejoin="round"/>
<path fill-rule="evenodd" clip-rule="evenodd" d="M38.1162 50.3721H43.0697V54.5L47.1976 50.3721H52.9767V40.4651H38.1162V50.3721V50.3721Z" stroke="#323242" stroke-linecap="round" stroke-linejoin="round"/>
<path d="M41.4187 43.7675H49.6745" stroke="#323242" stroke-linecap="round" stroke-linejoin="round"/>
<path d="M41.4187 47.0698H47.1978" stroke="#323242" stroke-linecap="round" stroke-linejoin="round"/>
</svg>
