<svg width="71" height="71" viewBox="0 0 71 71" fill="none" xmlns="http://www.w3.org/2000/svg">
<circle opacity="0.2" cx="35.5" cy="35.5" r="35" stroke="#13162E"/>
<path fill-rule="evenodd" clip-rule="evenodd" d="M28.1305 30.3478C30.9879 30.3478 33.3044 28.0314 33.3044 25.1739C33.3044 22.3164 30.9879 20 28.1305 20C25.273 20 22.9565 22.3164 22.9565 25.1739C22.9565 28.0314 25.273 30.3478 28.1305 30.3478V30.3478Z" stroke="#13162E" stroke-linejoin="round"/>
<path fill-rule="evenodd" clip-rule="evenodd" d="M36.2609 33.3043H20C20 39.3194 22.4258 42.8273 25.1739 44.3913V54H31.087V44.3913C33.8336 42.8273 36.2609 39.3194 36.2609 33.3043Z" stroke="#13162E" stroke-linejoin="round"/>
<path fill-rule="evenodd" clip-rule="evenodd" d="M28.8695 33.3043H27.3912L26.6521 42.1739L28.1304 43.6521L29.6086 42.1739L28.8695 33.3043V33.3043Z" stroke="#13162E" stroke-linejoin="round"/>
<path d="M39.2173 42.1739H53.2608V21.4783H37.739" stroke="#13162E" stroke-linecap="round" stroke-linejoin="round"/>
<path d="M39.864 36.9076L42.6358 29.4602L47.1622 31.8254L49.3796 25.1747" stroke="#13162E" stroke-linecap="round" stroke-linejoin="round"/>
</svg>
