<svg width="71" height="71" viewBox="0 0 71 71" fill="none" xmlns="http://www.w3.org/2000/svg">
<circle opacity="0.2" cx="35.5" cy="35.5" r="35" stroke="#13162E"/>
<path fill-rule="evenodd" clip-rule="evenodd" d="M53 29.2173C53 26.7095 50.9441 24.6521 48.4348 24.6521H22.5652C20.0543 24.6521 18 26.7095 18 29.2173V44.4347C18 46.9456 20.0543 48.9999 22.5652 48.9999H48.4348C50.9441 48.9999 53 46.9456 53 44.4347V29.2173V29.2173Z" stroke="#323242" stroke-linecap="round" stroke-linejoin="round"/>
<path d="M30.1738 24.6521V21.6087C30.1738 19.9348 31.5419 18.5652 33.2173 18.5652H37.7825C39.4564 18.5652 40.826 19.9348 40.826 21.6087V24.6521" stroke="#323242" stroke-linecap="round" stroke-linejoin="round"/>
<path fill-rule="evenodd" clip-rule="evenodd" d="M42 36.5C42 40.09 39.091 43 35.5 43C31.911 43 29 40.09 29 36.5C29 32.911 31.911 30 35.5 30C39.091 30 42 32.911 42 36.5V36.5Z" stroke="#323242" stroke-linecap="round" stroke-linejoin="round"/>
<path d="M32.4053 30.7832L35.9593 37.0002H41.9813" stroke="#323242" stroke-linecap="round" stroke-linejoin="round"/>
<path d="M35.959 37L36.91 42.847" stroke="#323242" stroke-linecap="round" stroke-linejoin="round"/>
</svg>
