<svg width="24" height="24" viewBox="0 0 24 24" fill="none" xmlns="http://www.w3.org/2000/svg">
<g id="Frame" opacity="0.5">
<path id="Vector" d="M12 5.59424C10.2353 5.59424 8.80591 7.02365 8.80591 8.78835C8.80591 10.5531 10.2353 12.0001 12 12.0001C13.7647 12.0001 15.1941 10.5707 15.1941 8.806C15.1941 7.0413 13.7647 5.59424 12 5.59424ZM12 10.3942C11.1177 10.3942 10.3941 9.67071 10.3941 8.78835C10.3941 7.906 11.1177 7.18247 12 7.18247C12.8824 7.18247 13.6059 7.906 13.6059 8.78835C13.6059 9.68835 12.8824 10.3942 12 10.3942Z" fill="white"/>
<path id="Vector_2" d="M15.1942 3.26481C13.7118 2.41776 11.9824 2.18834 10.3412 2.62952C8.6824 3.0707 7.30593 4.12952 6.45888 5.61187L7.20005 6.0354L6.45888 5.61187C5.32946 7.58834 5.32946 10.0413 6.45888 12.0178L12.0001 21.6001L17.5412 12.0001C19.3059 8.94717 18.2471 5.02952 15.1942 3.26481ZM12.0001 18.406L7.83535 11.206L7.14711 11.6119L7.83535 11.206C6.98829 9.72364 6.98829 7.88834 7.83535 6.40599C8.48829 5.29423 9.51182 4.50011 10.7648 4.16481C12.0001 3.82952 13.2883 4.00599 14.4001 4.64128C16.6942 5.96481 17.4883 8.91187 16.1648 11.1883L12.0001 18.406Z" fill="white"/>
</g>
</svg>
