<svg width="230" height="45" viewBox="0 0 230 45" fill="none" xmlns="http://www.w3.org/2000/svg">
<path d="M25.3256 0.208984L12.665 13.1386H25.3256V39.0073L37.9908 26.1014V0.208984H25.3256Z" fill="white"/>
<path d="M12.6652 39.0073L25.3258 26.073H12.6652V0.208984L0 13.1102V39.0073H12.6652Z" fill="white"/>
<path d="M50.6514 6.6709V32.5396H57.2997V12.4933H67.4346V32.5396H74.0783V6.6709H50.6514Z" fill="white"/>
<path d="M115.231 16.3622H109.567V12.4933H122.213V6.6709H102.904V32.5396H115.551C120.616 32.5396 124.418 29.9414 124.418 24.4509C124.418 18.9604 120.616 16.3622 115.231 16.3622ZM114.599 27.2673H109.567V21.8764H114.613C116.182 21.8764 117.77 22.5354 117.77 24.5694C117.77 26.6035 116.168 27.2815 114.599 27.2815V27.2673Z" fill="white"/>
<path d="M90.3509 27.0252C85.9171 27.0252 83.4193 23.7063 83.4193 19.5955C83.4193 16.3003 85.2346 12.1611 90.2255 12.1611C91.3428 12.1705 92.4445 12.4301 93.4528 12.9216C94.4611 13.4132 95.3516 14.1247 96.0614 15.0059L100.105 10.9047C98.8568 9.37769 97.2945 8.15021 95.5292 7.30946C93.764 6.4687 91.839 6.03531 89.8912 6.04008C82.5465 6.04008 76.7525 11.5922 76.7525 19.6193C76.7277 22.4728 77.5906 25.2608 79.2169 27.5814C80.8432 29.9019 83.1489 31.6353 85.8018 32.5317C88.4546 33.4281 91.3177 33.4413 93.9783 32.5692C96.639 31.6972 98.9599 29.9851 100.607 27.6795L96.5674 23.4834C95.9223 24.5749 95.0096 25.4757 93.9194 26.0968C92.8292 26.7179 91.5992 27.0379 90.3509 27.0252Z" fill="white"/>
<g opacity="0.5">
<path d="M145.646 16.2771V15.5422H147.577V0.94835H145.646V0.199219H150.376C152.466 0.199219 154.091 0.611715 155.195 1.40352C155.736 1.7692 156.175 2.27116 156.471 2.86087C156.766 3.45058 156.907 4.1081 156.881 4.76987C156.9 5.44902 156.754 6.12248 156.456 6.72987C156.158 7.33725 155.717 7.85957 155.172 8.25C154.035 9.11293 152.447 9.53016 150.4 9.53016H149.647V15.5422H152.377V16.2771H145.646ZM154.601 4.86469C154.601 3.49445 154.258 2.49402 153.598 1.86817C152.939 1.24231 151.895 0.919902 150.483 0.919902H149.647V8.85689H150.53C151.919 8.85689 152.942 8.53132 153.598 7.88018C154.258 7.23062 154.601 6.21123 154.601 4.81728V4.86469Z" fill="white"/>
<path d="M174.323 16.277H168.752V15.5421H170.428V5.34348H168.752V4.63228H170.521C171.482 4.63228 171.914 4.63228 172.28 4.2672L172.503 4.49478V15.5421H174.323V16.277ZM171.315 8.99514e-08C171.501 -6.74877e-05 171.685 0.0379422 171.856 0.111785C172.028 0.185627 172.183 0.293806 172.313 0.429931C172.443 0.566057 172.545 0.727371 172.612 0.904346C172.68 1.08132 172.712 1.27037 172.707 1.46033C172.707 1.8426 172.559 2.20922 172.294 2.47953C172.029 2.74984 171.67 2.9017 171.296 2.9017C170.922 2.9017 170.563 2.74984 170.298 2.47953C170.033 2.20922 169.885 1.8426 169.885 1.46033C169.877 1.27139 169.907 1.08284 169.975 0.90662C170.042 0.730402 170.144 0.570362 170.275 0.43664C170.406 0.302917 170.563 0.198429 170.735 0.129796C170.908 0.061162 171.093 0.0298796 171.278 0.0379308L171.315 8.99514e-08Z" fill="white"/>
<path d="M180.099 16.277L175.981 5.34352H174.588V4.63232H180.159V5.34352H178.135L180.888 12.8253L183.506 5.34352H181.752V4.63232H185.665V5.34352H184.416L180.456 16.277H180.099Z" fill="white"/>
<path d="M204.347 12.8586C204.268 14.5844 203.883 15.7034 202.657 15.7271C202.314 15.7271 201.237 15.4995 201.265 14.0487V5.34357H204.835V4.63237H201.265V0.199219H200.564C200.564 2.73109 199.723 4.63237 197.281 4.63237V5.34357H199.171V13.6172C199.171 13.6788 199.101 16.462 202.138 16.462C204.273 16.462 204.853 15.0064 204.96 12.8491L204.347 12.8586Z" fill="white"/>
<path d="M215.313 12.8583C214.849 14.3091 214.078 15.7505 211.845 15.7505C210.253 15.7505 208.73 15.1436 208.73 10.4117V10.1557H216.117V9.61992C216.117 7.18287 214.947 4.44238 211.636 4.44238C207.922 4.44238 206.683 8.09795 206.683 10.4591C206.683 14.4229 209.027 16.566 211.822 16.566C213.767 16.566 215.457 15.1436 216 12.8583H215.313ZM211.599 5.21048C213.507 5.21048 214.102 6.91736 214.102 9.3307V9.55354H208.749C208.869 6.94581 209.547 5.21522 211.595 5.21522L211.599 5.21048Z" fill="white"/>
<path d="M196.743 12.8585C196.743 14.9778 196.125 15.4852 195.601 15.4852C195.499 15.4852 194.807 15.4852 194.807 14.4373V7.79946C194.807 4.67018 192.272 4.44259 190.944 4.44259C189.745 4.39887 188.573 4.81302 187.657 5.60422C187.355 5.8519 187.107 6.16113 186.929 6.51217C186.751 6.86321 186.646 7.24834 186.622 7.64299C186.627 8.02024 186.778 8.38003 187.043 8.64323C187.308 8.90642 187.664 9.05146 188.033 9.04643C188.403 9.0414 188.755 8.88672 189.013 8.61641C189.27 8.3461 189.412 7.98231 189.408 7.60506C189.41 7.25488 189.286 6.91613 189.059 6.65368C188.832 6.39122 188.518 6.22351 188.177 6.18266C188.46 5.88702 188.8 5.65533 189.176 5.50259C189.552 5.34985 189.955 5.27948 190.359 5.29603C191.59 5.29603 192.718 5.85551 192.718 8.07446V9.66754C192.175 9.87086 191.622 10.0418 191.06 10.1796C186.497 11.4692 186.26 12.8348 186.26 13.8826C186.26 16.2533 188.279 16.4951 189.273 16.4951C190.075 16.5217 190.862 16.2712 191.508 15.7842C192.153 15.2973 192.619 14.6022 192.829 13.8115C192.871 15.4093 193.479 16.4951 195.025 16.4951C196.353 16.4951 197.314 15.8929 197.346 12.8822L196.743 12.8585ZM192.736 11.2891C192.736 13.124 192.272 15.3619 190.039 15.3619C189.807 15.3831 189.573 15.3519 189.354 15.2704C189.135 15.1889 188.936 15.0592 188.771 14.8903C188.607 14.7215 188.481 14.5178 188.402 14.2936C188.324 14.0695 188.294 13.8304 188.316 13.5934C188.312 13.2791 188.372 12.9673 188.493 12.6782C188.613 12.3891 188.792 12.1291 189.018 11.9149C189.69 11.388 190.459 11.0029 191.278 10.7818C192.23 10.4688 192.574 10.3408 192.755 10.3076L192.736 11.2891Z" fill="white"/>
<path d="M164.908 4.41881C164.123 4.41881 162.336 4.73648 161.881 7.90369V4.48045L161.653 4.26709C161.226 4.6464 160.878 4.62743 159.996 4.62743H158.403V5.33863H160.172V15.542H158.408V16.2769H164.908V15.542H162.271V11.014C162.271 8.16921 162.647 5.07312 164.884 5.07312C165.129 5.06128 165.374 5.10247 165.602 5.194C165.83 5.28552 166.036 5.4253 166.208 5.60415H166.003C165.818 5.59537 165.633 5.62615 165.46 5.69453C165.288 5.7629 165.131 5.86737 164.999 6.00124C164.868 6.13511 164.766 6.29545 164.699 6.472C164.632 6.64855 164.602 6.83742 164.611 7.02655C164.611 7.40882 164.759 7.77544 165.024 8.04575C165.289 8.31605 165.648 8.46791 166.022 8.46791C166.396 8.46791 166.755 8.31605 167.02 8.04575C167.285 7.77544 167.433 7.40882 167.433 7.02655C167.456 6.68048 167.407 6.3334 167.288 6.00832C167.17 5.68324 166.985 5.38759 166.746 5.14098C166.508 4.89438 166.22 4.70246 165.903 4.57795C165.586 4.45345 165.247 4.3992 164.908 4.41881Z" fill="white"/>
<path d="M136.132 36.741V0.208984L133.913 2.4706V39.0073L136.132 36.741Z" fill="white"/>
<path d="M145.646 38.9406V38.2105H147.572V23.6119H145.646V22.8628H150.135C152.285 22.8628 153.896 23.2421 154.982 23.9106C155.497 24.2068 155.922 24.6423 156.211 25.1694C156.499 25.6964 156.639 26.2944 156.616 26.8977C156.638 27.8224 156.305 28.7192 155.688 29.3963C155.023 30.0987 154.143 30.5473 153.195 30.667C154.339 30.792 155.424 31.2513 156.319 31.9899C156.669 32.302 156.947 32.69 157.131 33.1255C157.316 33.561 157.403 34.0332 157.387 34.5075C157.422 35.1352 157.304 35.7619 157.043 36.3313C156.782 36.9007 156.386 37.3949 155.892 37.7695C154.898 38.5139 153.422 38.9406 151.472 38.9406H145.646ZM153.417 24.4227C152.763 23.8917 151.741 23.6119 150.358 23.6119H149.643V30.4394H151.198C151.635 30.47 152.073 30.405 152.482 30.2488C152.892 30.0926 153.265 29.8489 153.575 29.5338C154.164 28.8014 154.456 27.8668 154.392 26.9214C154.392 25.7882 154.077 24.9537 153.417 24.4227ZM154.137 31.9661C153.342 31.3401 152.353 31.027 151.351 31.0843H149.661V38.1963H151.286C152.623 38.1963 153.608 37.8739 154.207 37.2954C154.806 36.717 155.135 35.7924 155.135 34.517C155.166 34.0427 155.092 33.5674 154.919 33.1261C154.746 32.6847 154.479 32.2884 154.137 31.9661Z" fill="white"/>
<path d="M176.477 38.2107V38.9409H170.906V38.2107H172.61V28.0121H170.906V27.2962H172.475C173.316 27.2962 173.84 27.3294 174.147 27.0117L174.374 27.1871V30.6009C174.537 29.0789 175.567 27.1065 178.135 27.1065C179.063 27.1065 182.193 27.1065 182.193 31.7341V38.2107H183.869V38.9409H178.297V38.2107H180.136V31.9901C180.136 30.6673 179.908 29.6953 179.477 29.0742C179.243 28.7534 178.933 28.4982 178.577 28.3324C178.221 28.1666 177.829 28.0956 177.438 28.1259C174.583 28.1259 174.695 31.919 174.695 32.3931V38.2107H176.477Z" fill="white"/>
<path d="M189.983 38.2106V38.9408H184.704V38.2106H186.366V23.6642H184.704V22.9293H186.306C186.9 22.9293 187.699 22.9625 188.214 22.6211L188.441 22.8297V34.2326L193.084 28.012H190.976V27.296H195.967V28.012H194.064L191.116 31.9663L195.331 38.2106H196.534V38.9408H191.798V38.2106H193.135L189.885 33.3981L188.455 35.2947V38.1869L189.983 38.2106Z" fill="white"/>
<path d="M203.186 38.9402H197.615V38.2101H199.277V28.0115H197.615V27.2955H199.375C200.336 27.2955 200.768 27.2955 201.125 26.9589L201.353 27.1628V38.2101H203.168L203.186 38.9402ZM200.169 22.668C200.354 22.6679 200.538 22.7058 200.709 22.7793C200.88 22.8529 201.035 22.9606 201.165 23.0962C201.295 23.2319 201.397 23.3926 201.465 23.569C201.533 23.7455 201.566 23.934 201.562 24.1236C201.558 24.5039 201.408 24.8675 201.142 25.1343C200.876 25.401 200.518 25.5491 200.145 25.546C199.773 25.5428 199.417 25.3887 199.156 25.1175C198.895 24.8463 198.75 24.4802 198.753 24.0999C198.743 23.9105 198.773 23.7213 198.84 23.5445C198.906 23.3676 199.009 23.2069 199.14 23.0729C199.271 22.9389 199.428 22.8344 199.602 22.7663C199.775 22.6982 199.96 22.6679 200.145 22.6775L200.169 22.668Z" fill="white"/>
<path d="M210.03 38.2107V38.9409H204.459V38.2107H206.27V28.0121H204.459V27.2962H206.028C206.864 27.2962 207.389 27.2962 207.7 26.9785L207.927 27.1871V30.6009C208.09 29.0789 209.12 27.1065 211.688 27.1065C212.616 27.1065 215.611 27.1065 215.611 31.7341V38.2107H217.421V38.9409H211.85V38.2107H213.665V31.9901C213.665 29.2875 212.737 28.1259 210.968 28.1259C208.113 28.1259 208.326 31.919 208.326 32.3931V38.2107H210.03Z" fill="white"/>
<path d="M229.001 40.8703C229.001 43.7767 226.517 45 223.708 45C222.139 45 218.137 44.7155 218.137 41.5199C218.137 39.8841 219.757 38.9311 221.034 38.6277C218.968 38.3384 219.019 36.6932 219.019 36.4514C219.014 36.1448 219.079 35.8413 219.209 35.5648C219.338 35.2884 219.529 35.0465 219.766 34.8583C220.295 34.4273 220.947 34.1828 221.623 34.1613C221.568 34.1613 219.335 33.2131 219.335 30.8756C219.335 28.6282 221.257 27.1726 223.597 27.1726C223.959 27.1689 224.321 27.2103 224.674 27.2959H229.015V28.0118H226.405C226.862 28.3248 227.236 28.7483 227.494 29.2447C227.751 29.7411 227.885 30.2948 227.882 30.8566C227.882 33.0092 225.946 34.5596 223.62 34.5596C222.742 34.5596 220.402 34.5122 220.402 35.7402C220.388 38.2815 229.001 35.0859 229.001 40.8703ZM220.063 41.5483C220.063 43.497 221.693 44.2746 223.648 44.2746C227.501 44.2746 227.543 41.8565 227.543 41.4298C227.543 39.5332 225.978 38.9358 223.601 38.9358H221.921C221.368 39.0687 220.878 39.3964 220.539 39.8612C220.199 40.326 220.031 40.8982 220.063 41.4772V41.5483ZM221.224 30.6432C221.224 33.7156 222.937 33.8816 223.601 33.8816C225.755 33.8816 225.964 31.6579 225.964 30.7191C225.964 27.789 224.168 27.7273 223.601 27.7273C221.693 27.7321 221.206 29.273 221.206 30.648L221.224 30.6432Z" fill="white"/>
<path d="M169.755 35.5272C169.755 37.6608 169.179 38.1633 168.58 38.1633C168.445 38.1633 167.823 38.187 167.823 36.9638V30.4587C167.823 27.3341 165.284 27.1065 163.956 27.1065C162.758 27.0638 161.587 27.4759 160.669 28.2634C160.367 28.5116 160.118 28.8216 159.94 29.1735C159.762 29.5254 159.657 29.9115 159.634 30.3069C159.639 30.6842 159.791 31.0437 160.056 31.3065C160.321 31.5692 160.678 31.7137 161.047 31.708C161.417 31.7023 161.769 31.5471 162.026 31.2763C162.283 31.0056 162.425 30.6415 162.419 30.2643C162.422 29.9141 162.297 29.5753 162.07 29.3129C161.843 29.0504 161.529 28.8827 161.189 28.8419C161.472 28.5465 161.812 28.3149 162.188 28.1622C162.564 28.0095 162.967 27.939 163.371 27.9552C164.601 27.9552 165.729 28.5147 165.729 30.7289V32.3267C165.189 32.529 164.637 32.6984 164.077 32.8341C159.508 34.1237 159.271 35.4892 159.271 36.5371C159.271 38.9077 161.296 39.1495 162.285 39.1495C163.087 39.177 163.874 38.9269 164.52 38.4398C165.166 37.9526 165.631 37.2571 165.841 36.4659C165.883 38.0638 166.496 39.1543 168.042 39.1543C169.369 39.1543 170.33 38.5474 170.363 35.5414L169.755 35.5272ZM165.743 33.953C165.743 35.7927 165.279 38.0258 163.046 38.0258C162.814 38.048 162.58 38.0175 162.362 37.9365C162.143 37.8556 161.944 37.7262 161.78 37.5576C161.616 37.389 161.49 37.1855 161.412 36.9615C161.334 36.7375 161.305 36.4987 161.328 36.2621C161.323 35.9474 161.382 35.635 161.502 35.3451C161.622 35.0552 161.8 34.7942 162.025 34.5789C162.693 34.0535 163.457 33.6683 164.272 33.4457C165.223 33.1375 165.562 33.0048 165.743 32.9716V33.953Z" fill="white"/>
</g>
</svg>
