<svg width="25" height="24" viewBox="0 0 25 24" fill="none" xmlns="http://www.w3.org/2000/svg">
<g id="Frame" opacity="0.5">
<path id="Vector" d="M8.47212 9.88224C10.2191 9.88224 11.6485 8.45283 11.6485 6.70577C11.6485 4.95871 10.2191 3.5293 8.47212 3.5293C6.72506 3.5293 5.29565 4.95871 5.29565 6.70577C5.29565 8.45283 6.72506 9.88224 8.47212 9.88224ZM8.47212 4.94106C9.44271 4.94106 10.2368 5.73518 10.2368 6.70577C10.2368 7.67636 9.44271 8.47047 8.47212 8.47047C7.50153 8.47047 6.70741 7.67636 6.70741 6.70577C6.70741 5.73518 7.50153 4.94106 8.47212 4.94106Z" fill="white"/>
<path id="Vector_2" d="M3.03672 13.5527L2.82495 13.7469V19.7645H4.23672V14.3469C6.63672 12.1586 10.3073 12.1586 12.7073 14.3469V19.7645H14.1191V13.7469L13.9073 13.5351C10.9073 10.5527 6.03672 10.5527 3.03672 13.5527Z" fill="white"/>
<path id="Vector_3" d="M16.9426 12.0002C18.6896 12.0002 20.119 10.5707 20.119 8.82369C20.119 7.07663 18.6896 5.64722 16.9426 5.64722C15.1955 5.64722 13.7661 7.05898 13.7661 8.82369C13.7661 10.5707 15.1955 12.0002 16.9426 12.0002ZM16.9426 7.05898C17.9131 7.05898 18.7073 7.8531 18.7073 8.82369C18.7073 9.79427 17.9131 10.5884 16.9426 10.5884C15.972 10.5884 15.1779 9.79427 15.1779 8.82369C15.1779 7.8531 15.972 7.05898 16.9426 7.05898Z" fill="white"/>
<path id="Vector_4" d="M22.378 15.6529C20.578 13.8529 18.0192 13.0587 15.531 13.5352V14.9823C15.5839 14.9646 15.6192 14.9646 15.6721 14.947C17.6486 14.5411 19.6957 15.1058 21.178 16.4646V19.7646H22.5898V15.8646L22.378 15.6529Z" fill="white"/>
</g>
</svg>
