<svg width="71" height="71" viewBox="0 0 71 71" fill="none" xmlns="http://www.w3.org/2000/svg">
<circle opacity="0.2" cx="35.5" cy="35.5" r="35" stroke="#13162E"/>
<path d="M27.7588 32.4368C27.7588 33.8506 28.9044 34.9932 30.3152 34.9932C31.7275 34.9932 32.8731 33.8506 32.8731 32.4368C32.8731 31.0275 31.7275 29.8804 30.3152 29.8804C28.9044 29.8804 27.7588 28.7363 27.7588 27.3225C27.7588 25.9117 28.9044 24.7661 30.3152 24.7661C31.7275 24.7661 32.8731 25.9117 32.8731 27.3225" stroke="#323242" stroke-linecap="round" stroke-linejoin="round"/>
<path d="M30.3159 34.994V36.6988" stroke="#323242" stroke-linecap="round" stroke-linejoin="round"/>
<path d="M30.3159 23.0621V24.7654" stroke="#323242" stroke-linecap="round" stroke-linejoin="round"/>
<path fill-rule="evenodd" clip-rule="evenodd" d="M48.5001 51.8529H22.7393V17H39.4081L48.5001 26.0921V51.8529V51.8529Z" stroke="#323242" stroke-linecap="round" stroke-linejoin="round"/>
<path d="M39.4082 17V26.0921H48.5003" stroke="#323242" stroke-linecap="round" stroke-linejoin="round"/>
<path d="M27.4111 41.2455H43.9542" stroke="#323242" stroke-linecap="round" stroke-linejoin="round"/>
<path d="M36.4009 38.2148H43.9534" stroke="#323242" stroke-linecap="round" stroke-linejoin="round"/>
<path d="M39.4082 35.1841H43.9542" stroke="#323242" stroke-linecap="round" stroke-linejoin="round"/>
<path d="M39.4082 32.1534H43.9542" stroke="#323242" stroke-linecap="round" stroke-linejoin="round"/>
<path d="M27.4111 44.2762H43.9542" stroke="#323242" stroke-linecap="round" stroke-linejoin="round"/>
<path d="M27.4111 47.3069H43.9542" stroke="#323242" stroke-linecap="round" stroke-linejoin="round"/>
</svg>
