<svg width="71" height="71" viewBox="0 0 71 71" fill="none" xmlns="http://www.w3.org/2000/svg">
<circle opacity="0.2" cx="35.5" cy="35.5" r="35" stroke="#13162E"/>
<path fill-rule="evenodd" clip-rule="evenodd" d="M47.6363 28.7154C47.6363 26.6635 45.9542 24.9802 43.9011 24.9802H22.7352C20.6808 24.9802 19 26.6635 19 28.7154V41.166C19 43.2203 20.6808 44.9011 22.7352 44.9011H43.9011C45.9542 44.9011 47.6363 43.2203 47.6363 41.166V28.7154V28.7154Z" stroke="#323242" stroke-linecap="round" stroke-linejoin="round"/>
<path d="M28.9604 24.9802V22.4901C28.9604 21.1206 30.0798 20 31.4506 20H35.1857C36.5553 20 37.6758 21.1206 37.6758 22.4901V24.9802" stroke="#323242" stroke-linecap="round" stroke-linejoin="round"/>
<path fill-rule="evenodd" clip-rule="evenodd" d="M45.0194 36.0551C45.0194 39.1983 42.471 41.7467 39.3278 41.7467C36.1846 41.7467 33.6362 39.1983 33.6362 36.0551C33.6362 32.9119 36.1846 30.3635 39.3278 30.3635C42.471 30.3635 45.0194 32.9119 45.0194 36.0551Z" fill="#F6F6F7" stroke="#323242" stroke-linejoin="round"/>
<path d="M43.3594 40.0873L49.9993 46.7272" stroke="#323242" stroke-linecap="round" stroke-linejoin="round"/>
</svg>
